/vscmnt/brussel_pixiu_data/_data_brussel/112/vsc11236/PredSimResults/SUBJ10_Falisse2022/weightedWalking/worker_02.mot
version=1
nRows=4
nColumns=124
inDegrees=yes
endheader
                time	         pelvis_tilt	         pelvis_list	     pelvis_rotation	           pelvis_tx	           pelvis_ty	           pelvis_tz	       hip_flexion_r	     hip_adduction_r	      hip_rotation_r	        knee_angle_r	       ankle_angle_r	    subtalar_angle_r	         mtp_angle_r	       hip_flexion_l	     hip_adduction_l	      hip_rotation_l	        knee_angle_l	       ankle_angle_l	    subtalar_angle_l	         mtp_angle_l	    lumbar_extension	      lumbar_bending	     lumbar_rotation	          arm_flex_r	           arm_add_r	           arm_rot_r	        elbow_flex_r	          arm_flex_l	           arm_add_l	           arm_rot_l	        elbow_flex_l	glut_med1_r/activation	glut_med2_r/activation	glut_med3_r/activation	glut_min1_r/activation	glut_min2_r/activation	glut_min3_r/activation	semimem_r/activation	semiten_r/activation	bifemlh_r/activation	bifemsh_r/activation	    sar_r/activation	add_long_r/activation	add_brev_r/activation	add_mag1_r/activation	add_mag2_r/activation	add_mag3_r/activation	    tfl_r/activation	   pect_r/activation	   grac_r/activation	glut_max1_r/activation	glut_max2_r/activation	glut_max3_r/activation	iliacus_r/activation	  psoas_r/activation	quad_fem_r/activation	    gem_r/activation	   peri_r/activation	rect_fem_r/activation	vas_med_r/activation	vas_int_r/activation	vas_lat_r/activation	med_gas_r/activation	lat_gas_r/activation	 soleus_r/activation	tib_post_r/activation	flex_dig_r/activation	flex_hal_r/activation	tib_ant_r/activation	per_brev_r/activation	per_long_r/activation	per_tert_r/activation	ext_dig_r/activation	ext_hal_r/activation	glut_med1_l/activation	glut_med2_l/activation	glut_med3_l/activation	glut_min1_l/activation	glut_min2_l/activation	glut_min3_l/activation	semimem_l/activation	semiten_l/activation	bifemlh_l/activation	bifemsh_l/activation	    sar_l/activation	add_long_l/activation	add_brev_l/activation	add_mag1_l/activation	add_mag2_l/activation	add_mag3_l/activation	    tfl_l/activation	   pect_l/activation	   grac_l/activation	glut_max1_l/activation	glut_max2_l/activation	glut_max3_l/activation	iliacus_l/activation	  psoas_l/activation	quad_fem_l/activation	    gem_l/activation	   peri_l/activation	rect_fem_l/activation	vas_med_l/activation	vas_int_l/activation	vas_lat_l/activation	med_gas_l/activation	lat_gas_l/activation	 soleus_l/activation	tib_post_l/activation	flex_dig_l/activation	flex_hal_l/activation	tib_ant_l/activation	per_brev_l/activation	per_long_l/activation	per_tert_l/activation	ext_dig_l/activation	ext_hal_l/activation	 ercspn_r/activation	 ercspn_l/activation	 intobl_r/activation	 intobl_l/activation	 extobl_r/activation	 extobl_l/activation	
          0.00000000	         -6.08662083	         -1.42865516	          2.92959332	          0.00000000	          0.82347256	         -0.00427916	         33.89775592	          3.66823593	          3.35981871	        -12.05131304	         13.36634585	         -7.11772626	          0.23740693	        -14.91012156	          1.84701072	         10.64739101	         -7.44831424	          3.93229647	         -3.17356302	         30.26152028	         -3.27368424	          0.03029044	         -1.68305779	        -22.54461213	        -13.97590042	         10.41299203	         15.85602550	         26.74180222	        -13.53160316	         19.37928803	         64.88634521	          0.02467663	          0.01000003	          0.01000001	          0.01000094	          0.01000007	          0.01000011	          0.11472996	          0.03480183	          0.03021076	          0.01000002	          0.01427558	          0.03259588	          0.11926387	          0.15161565	          0.09673658	          0.04674679	          0.01000139	          0.01706298	          0.06893715	          0.03332471	          0.01870525	          0.04237225	          0.01705657	          0.01705657	          0.12641174	          0.01012243	          0.01395348	          0.01705655	          0.08827806	          0.08676659	          0.07974618	          0.00999999	          0.01000000	          0.00999999	          0.01915457	          0.01427562	          0.01427563	          0.30457668	          0.25808384	          0.17283465	          0.11292324	          0.37686357	          0.16754650	          0.13095787	          0.08463837	          0.06495282	          0.16896168	          0.14601777	          0.11389580	          0.01563356	          0.01000013	          0.01000017	          0.02671009	          0.06770425	          0.06496339	          0.01420186	          0.01427743	          0.01007721	          0.01000021	          0.20042237	          0.02410396	          0.02037992	          0.02037937	          0.01428206	          0.01426332	          0.24646088	          0.33247933	          0.02425715	          0.02065727	          0.08884325	          0.07912468	          0.01000010	          0.01000011	          0.01000016	          0.18592680	          0.25344154	          0.28158689	          0.27154152	          0.33846077	          0.33739949	          0.01000000	          0.01000000	          0.00999999	          0.01000001	          0.01000000	          0.01000003	          0.03704356	          0.01000000	          0.02637151	          0.01546642	          0.06916192	          0.01000000	
          0.01168834	         -6.07148384	         -1.67256939	          3.20904775	          0.01596539	          0.82206172	         -0.00404999	         33.09944541	          4.02849603	          3.64354795	        -12.49153338	         12.63348852	         -7.52140297	          0.22551952	        -14.72874753	          1.62006296	         10.18425060	         -9.77098985	          3.76429194	         -2.60691965	         31.36089496	         -3.14381180	          0.50800748	         -1.73925225	        -23.94611562	        -13.96256644	         10.48130077	         15.87443914	         26.73963398	        -13.54629672	         19.38412277	         67.05596687	          0.12000239	          0.01000000	          0.01000002	          0.01000001	          0.01000001	          0.14994128	          0.09602395	          0.02912768	          0.04361232	          0.03025291	          0.01194813	          0.02728133	          0.09981864	          0.12689566	          0.08096428	          0.03912502	          0.01000005	          0.01428104	          0.05769749	          0.12831456	          0.02103486	          0.03546374	          0.01427560	          0.01427561	          0.17692659	          0.02434922	          0.12491461	          0.01427559	          0.07388488	          0.07261984	          0.06674406	          0.01705656	          0.01682655	          0.01562556	          0.01603154	          0.01194807	          0.01194808	          0.33229921	          0.25388831	          0.14465504	          0.09495078	          0.45630522	          0.14022909	          0.20095731	          0.07083861	          0.05436267	          0.14141364	          0.12221048	          0.09532580	          0.01434384	          0.01007362	          0.01132050	          0.02235517	          0.05666550	          0.10432468	          0.01194814	          0.01194967	          0.01000088	          0.01000014	          0.16774475	          0.02017431	          0.01705712	          0.01705666	          0.01195349	          0.01193781	          0.20627696	          0.27827064	          0.02030218	          0.01728923	          0.07435791	          0.06622390	          0.01000000	          0.01000000	          0.01000000	          0.15561259	          0.21211947	          0.26984067	          0.23821435	          0.28327725	          0.29184967	          0.01000000	          0.01000000	          0.01000000	          0.01000000	          0.01000000	          0.01000002	          0.03100384	          0.02013872	          0.02391379	          0.01294471	          0.05788550	          0.01000000	
          0.02337668	         -6.05440951	         -1.91090193	          3.47091492	          0.03198457	          0.82067603	         -0.00379253	         32.22722528	          4.37065872	          3.93762130	        -12.85848607	         11.91548041	         -7.92419449	          0.22717047	        -14.42185587	          1.39558586	          9.71313472	        -12.30178150	          3.53538587	         -2.03675619	         32.20044746	         -3.01646536	          0.98620393	         -1.78751154	        -25.17507265	        -13.92903691	         10.71833353	         15.69967570	         26.63663172	        -13.55833405	         19.34949999	         69.03654288	          0.19045610	          0.19062344	          0.20711932	          0.08978051	          0.12814386	          0.12549432	          0.08036784	          0.04188303	          0.03650160	          0.02532037	          0.01000008	          0.02283329	          0.08354384	          0.10620613	          0.07672503	          0.05122709	          0.01000002	          0.01195265	          0.05783296	          0.15411279	          0.08578264	          0.05664409	          0.01194805	          0.01194806	          0.14807983	          0.02037927	          0.10454809	          0.01194804	          0.06183850	          0.06077978	          0.06124916	          0.01427559	          0.01408309	          0.01307791	          0.01341769	          0.01000001	          0.01000002	          0.41035069	          0.28755235	          0.15554544	          0.36331334	          0.47928601	          0.25771195	          0.21238770	          0.05928881	          0.04549917	          0.17235399	          0.10228482	          0.07978352	          0.02214355	          0.01000005	          0.01000004	          0.01871030	          0.04742654	          0.11535983	          0.01000012	          0.01000142	          0.01000053	          0.01681474	          0.14039501	          0.01688505	          0.01427607	          0.01427571	          0.01000463	          0.01000015	          0.17264478	          0.23290034	          0.01699203	          0.01447034	          0.06223431	          0.05542650	          0.02189730	          0.02044418	          0.01365550	          0.13024092	          0.17753470	          0.24771999	          0.22288894	          0.26371772	          0.26717161	          0.01000000	          0.01000008	          0.01000035	          0.01000002	          0.01000000	          0.01000002	          0.05867628	          0.03715939	          0.02037926	          0.01083416	          0.04844763	          0.00999999	
          0.03506502	         -6.03662920	         -2.13813265	          3.71393963	          0.04787519	          0.81950711	         -0.00349841	         31.38686017	          4.71695468	          4.22953132	        -13.23946225	         11.10812708	         -8.31635803	          0.22236621	        -13.97393294	          1.17308494	          9.24732612	        -15.02579408	          3.23201303	         -1.45180574	         32.63691264	         -2.90203905	          1.45787526	         -1.82861487	        -26.18722481	        -13.87150010	         11.09456221	         15.33420027	         26.45874844	        -13.56016553	         19.29452511	         70.74794602	          0.24583584	          0.26437438	          0.27233520	          0.09295807	          0.11093060	          0.13234678	          0.06726436	          0.04717859	          0.03361535	          0.02119205	          0.01000002	          0.01911047	          0.06992254	          0.08888991	          0.07812339	          0.06507851	          0.01000002	          0.01000390	          0.04840371	          0.18718274	          0.11717493	          0.07251400	          0.01000000	          0.01000001	          0.12393636	          0.01705661	          0.08750219	          0.01000000	          0.11065112	          0.10986445	          0.10230700	          0.01194805	          0.01178693	          0.01094564	          0.01395275	          0.01000016	          0.01000007	          0.47672056	          0.29988654	          0.15820319	          0.42959915	          0.51886718	          0.27756275	          0.20500642	          0.04962214	          0.03808081	          0.16220124	          0.08560792	          0.06677531	          0.02970766	          0.01000023	          0.01000056	          0.01565971	          0.03969394	          0.12067673	          0.07155824	          0.01000111	          0.01005268	          0.03318471	          0.11750448	          0.01413212	          0.01194846	          0.01194818	          0.01000015	          0.01000019	          0.14449612	          0.19492738	          0.01422159	          0.01211105	          0.05208740	          0.04638956	          0.02863191	          0.02640874	          0.02292159	          0.10900595	          0.14858877	          0.22439194	          0.20822553	          0.23132645	          0.24549077	          0.01000000	          0.01000004	          0.01000003	          0.01000004	          0.01000000	          0.01000005	          0.06900098	          0.05822662	          0.01705655	          0.00999999	          0.04054854	          0.00999999	
